#!OML:ASF E:\motion texture\Top Level 1\Subject 1\Session 1\male.ASF
:FULLY-SPECIFIED
:DEGREES
176
root 17.3773 17.7621 6.51192 69.1587 -79.701 -60.4475
lowerback 0.510356 1.58553 7.39304
upperback -0.212667 2.06759 4.24818
thorax -0.397282 0.966484 0.225822
lowerneck -17.9528 -5.34241 -7.55368
upperneck 13.8337 -6.46323 6.31432
head 7.66268 -2.90126 2.53734
rclavicle 2.49475e-014 5.60573e-014
rhumerus -34.856 18.4824 -93.6716
rradius 86.6837
rwrist 19.97
rhand -19.3259 -18.663
rfingers 7.12502
rthumb 6.99058 -48.5275
lclavicle 2.49475e-014 5.60573e-014
lhumerus -37.5738 -5.79833 96.1153
lradius 61.2501
lwrist -12.2617
lhand -16.8541 22.8612
lfingers 7.12502
lthumb 9.37611 52.6327
rfemur -3.84426 1.72449 32.3718
rtibia 17.542
rfoot -13.4103 -18.0393
rtoes 0.43349
lfemur -33.9403 -0.157318 -3.17076
ltibia 27.5592
lfoot -4.93595 7.97529
ltoes -15.907
177
root 17.2124 17.7486 6.52894 69.7924 -79.7271 -61.0872
lowerback 0.520421 1.62035 7.38925
upperback -0.207681 2.11592 4.20531
thorax -0.393931 0.991348 0.183366
lowerneck -17.9286 -5.3375 -7.56876
upperneck 13.7813 -6.46021 6.36082
head 7.64323 -2.89692 2.55606
rclavicle -6.19214e-014 -1.1609e-013
rhumerus -34.9232 18.5613 -93.8345
rradius 86.6805
rwrist 20.0069
rhand -19.2725 -18.5787
rfingers 7.12502
rthumb 7.04211 -48.4415
lclavicle -6.19214e-014 -1.1609e-013
lhumerus -37.489 -5.53394 95.9747
lradius 61.4822
lwrist -12.2769
lhand -16.8928 22.96
lfingers 7.12502
lthumb 9.33882 52.7331
rfemur -3.47866 1.69009 32.3581
rtibia 17.9675
rfoot -13.5809 -17.9272
rtoes -0.529593
lfemur -33.9313 -0.19395 -3.09758
ltibia 26.3069
lfoot -4.73163 8.05867
ltoes -15.7286
178
root 17.0462 17.735 6.54695 70.433 -79.759 -61.7419
lowerback 0.530327 1.65382 7.374
upperback -0.201334 2.1624 4.16109
thorax -0.389484 1.01545 0.145861
lowerneck -17.9055 -5.33078 -7.58189
upperneck 13.7319 -6.45563 6.40893
head 7.62488 -2.89158 2.57516
rclavicle 2.52457e-014 2.78299e-014
rhumerus -34.9745 18.6402 -93.9871
rradius 86.6737
rwrist 20.0493
rhand -19.2159 -18.4891
rfingers 7.12502
rthumb 7.09671 -48.3501
lclavicle 2.52457e-014 2.78299e-014
lhumerus -37.3973 -5.2917 95.8521
lradius 61.7063
lwrist -12.2859
lhand -16.9302 23.0629
lfingers 7.12502
lthumb 9.30265 52.8377
rfemur -3.14501 1.64085 32.326
rtibia 18.4604
rfoot -13.7196 -17.801
rtoes -1.49328
lfemur -33.8982 -0.228833 -3.04159
ltibia 25.1494
lfoot -4.51778 8.12378
ltoes -15.5089
179
root 16.8789 17.7216 6.56589 71.0669 -79.7959 -62.3975
lowerback 0.540446 1.6856 7.3468
upperback -0.194689 2.20671 4.11539
thorax -0.385311 1.03857 0.113419
lowerneck -17.8812 -5.32256 -7.59338
upperneck 13.6844 -6.44999 6.459
head 7.60686 -2.88551 2.5948
rclavicle 1.94809e-014 5.24792e-014
rhumerus -35.0099 18.7188 -94.1283
rradius 86.6626
rwrist 20.0968
rhand -19.1548 -18.3967
rfingers 7.12502
rthumb 7.15569 -48.2557
lclavicle 1.94809e-014 5.24792e-014
lhumerus -37.2998 -5.07313 95.7479
lradius 61.9208
lwrist -12.2896
lhand -16.9681 23.1632
lfingers 7.12502
lthumb 9.2661 52.9396
rfemur -2.84675 1.57489 32.2749
rtibia 19.0222
rfoot -13.8165 -17.6631
rtoes -2.45195
lfemur -33.8437 -0.258374 -3.00574
ltibia 24.0921
lfoot -4.29497 8.16943
ltoes -15.2447
180
root 16.7104 17.7082 6.58574 71.6981 -79.8399 -63.0591
lowerback 0.549787 1.71585 7.30578
upperback -0.186655 2.24886 4.06791
thorax -0.379808 1.0608 0.0868071
lowerneck -17.8547 -5.31301 -7.60294
upperneck 13.6378 -6.44345 6.51027
head 7.58872 -2.87889 2.61467
rclavicle 1.5704e-014 -1.47101e-014
rhumerus -35.0293 18.7959 -94.258
rradius 86.648
rwrist 20.1506
rhand -19.0892 -18.2983
rfingers 7.12502
rthumb 7.21905 -48.1552
lclavicle 1.5704e-014 -1.47101e-014
lhumerus -37.1945 -4.87917 95.6616
lradius 62.1255
lwrist -12.2864
lhand -17.0055 23.2533
lfingers 7.12502
lthumb 9.23001 53.0313
rfemur -2.58455 1.49181 32.2026
rtibia 19.6547
rfoot -13.865 -17.5101
rtoes -3.38227
lfemur -33.7664 -0.279669 -2.99314
ltibia 23.1372
lfoot -4.06742 8.19494
ltoes -14.9434
